<?xml version="1.0" encoding="utf-8"?>
<!-- Generator: Adobe Illustrator 28.3.0, SVG Export Plug-In . SVG Version: 6.00 Build 0)  -->
<svg version="1.1" id="Layer_1" xmlns="http://www.w3.org/2000/svg" xmlns:xlink="http://www.w3.org/1999/xlink" x="0px" y="0px"
	 viewBox="0 0 948 1031" style="enable-background:new 0 0 948 1031;" xml:space="preserve">
<style type="text/css">
	.st0{fill:#A67C52;}
	.st1{fill:#A67C52;stroke:#412312;stroke-width:11;stroke-miterlimit:10;}
	.st2{fill:none;stroke:#412312;stroke-width:6;stroke-miterlimit:10;}
	.st3{fill:none;stroke:#000000;stroke-width:6;stroke-miterlimit:10;}
</style>
<g>
	<rect x="513.5" y="984.5" class="st0" width="405" height="23"/>
	<path d="M918,985v22H514v-22H918 M919,984H513v24h406V984L919,984z"/>
</g>
<g>
	<rect x="713.5" y="111.5" class="st0" width="21" height="896"/>
	<path d="M734,112v895h-20V112H734 M735,111h-22v897h22V111L735,111z"/>
</g>
<g>
	
		<rect x="559.33" y="946.81" transform="matrix(0.8989 -0.4381 0.4381 0.8989 -354.2345 381.2927)" class="st0" width="179.7" height="23"/>
	<path d="M724.69,909.28l9.64,19.78l-160.64,78.29l-9.64-19.78L724.69,909.28 M725.15,907.94l-162.44,79.17l10.51,21.57
		l162.44-79.17L725.15,907.94L725.15,907.94z"/>
</g>
<g>
	
		<rect x="790.95" y="868.11" transform="matrix(0.4467 -0.8947 0.8947 0.4467 -413.0819 1247.9457)" class="st0" width="23" height="179.7"/>
	<path d="M727.42,908.2l159.88,79.83l-9.83,19.68l-159.88-79.83L727.42,908.2 M726.97,906.86l-10.72,21.47l161.67,80.72l10.72-21.47
		L726.97,906.86L726.97,906.86z"/>
</g>
<g>
	<rect x="382.5" y="112" class="st0" width="353.5" height="21"/>
	<path d="M735.5,112.5v20H383v-20H735.5 M736.5,111.5H382v22h354.5V111.5L736.5,111.5z"/>
</g>
<g>
	<rect x="381.78" y="114.04" class="st0" width="21" height="57.46"/>
	<path d="M402.28,114.54V171h-20v-56.46H402.28 M403.28,113.54h-22V172h22V113.54L403.28,113.54z"/>
</g>
<path class="st1" d="M390.4,172.74c-1.9,29.76,2.1,39.76,2.1,39.76l-3,4"/>
<circle class="st2" cx="393.5" cy="263.5" r="49.5"/>
<line class="st3" x1="393.5" y1="313" x2="393.5" y2="576"/>
<polyline class="st3" points="484.1,660.9 393.47,570.28 300.37,663.37 "/>
</svg>
